<?xml version="1.0" standalone="no"?>
<!DOCTYPE svg PUBLIC "-//W3C//DTD SVG 20010904//EN"
 "http://www.w3.org/TR/2001/REC-SVG-20010904/DTD/svg10.dtd">
<svg version="1.0" xmlns="http://www.w3.org/2000/svg"
 width="640.000000pt" height="373.000000pt" viewBox="0 0 640.000000 373.000000"
 preserveAspectRatio="xMidYMid meet">

<g transform="translate(0.000000,373.000000) scale(0.100000,-0.100000)"
fill="#000000" stroke="none">
<path d="M0 1865 l0 -1865 1775 0 1775 0 0 730 0 730 570 0 569 0 856 -424
855 -424 0 1239 c0 1177 -1 1240 -17 1235 -10 -3 -412 -193 -893 -421 l-874
-415 -533 0 -533 0 0 740 0 740 -1775 0 -1775 0 0 -1865z m1426 1825 l1354 0
0 -1840 0 -1840 -1365 0 -1365 0 -2 1845 c-3 1533 -1 1844 10 1840 8 -3 623
-5 1368 -5z"/>
<path d="M3810 3174 c0 -306 3 -554 8 -552 24 11 2198 1101 2201 1104 2 2
-494 4 -1102 4 l-1107 0 0 -556z"/>
<path d="M5110 3120 l-1215 -609 287 0 288 -1 965 482 965 483 0 127 0 128
-37 -1 c-29 0 -313 -138 -1253 -609z"/>
<path d="M4480 1196 c0 -1 432 -220 960 -485 l961 -482 -3 147 -3 146 -675
339 -675 338 -282 1 c-156 0 -283 -2 -283 -4z"/>
<path d="M3810 540 l0 -540 1088 1 1087 0 -1075 539 c-591 296 -1081 539
-1087 539 -10 1 -13 -113 -13 -539z"/>
</g>
</svg>
